<svg width="56" height="56" viewBox="0 0 56 56" fill="none" xmlns="http://www.w3.org/2000/svg">
<g filter="url(#filter0_bi_1_3735)">
<rect width="56" height="56" rx="28" fill="url(#paint0_linear_1_3735)"/>
<path fill-rule="evenodd" clip-rule="evenodd" d="M28.0267 18C22.5177 18 18.0527 22.465 18.0527 27.974C18.0527 32.38 20.9097 36.119 24.8737 37.439C25.3727 37.529 25.5527 37.222 25.5527 36.958C25.5527 36.721 25.5447 36.093 25.5417 35.262C22.7667 35.864 22.1807 33.924 22.1807 33.924C21.7287 32.772 21.0737 32.465 21.0737 32.465C20.1687 31.846 21.1427 31.86 21.1427 31.86C22.1447 31.93 22.6697 32.888 22.6697 32.888C23.5597 34.412 25.0057 33.972 25.5717 33.717C25.6627 33.072 25.9227 32.632 26.2067 32.383C23.9927 32.132 21.6647 31.276 21.6647 27.453C21.6647 26.366 22.0537 25.474 22.6887 24.778C22.5877 24.525 22.2427 23.51 22.7877 22.138C22.7877 22.138 23.6247 21.869 25.5297 23.159C26.3277 22.938 27.1787 22.827 28.0257 22.823C28.8747 22.827 29.7267 22.938 30.5217 23.159C32.4277 21.868 33.2637 22.138 33.2637 22.138C33.8087 23.51 33.4667 24.525 33.3627 24.778C34.0027 25.474 34.3867 26.365 34.3867 27.453C34.3867 31.286 32.0567 32.128 29.8347 32.375C30.1897 32.683 30.5097 33.291 30.5097 34.221C30.5097 35.555 30.4977 36.631 30.4977 36.958C30.4977 37.225 30.6757 37.535 31.1847 37.437C35.1467 36.115 38.0007 32.379 38.0007 27.974C38.0007 22.465 33.5357 18 28.0267 18Z" fill="#9CA3AF"/>
</g>
<defs>
<filter id="filter0_bi_1_3735" x="-10" y="-10" width="76" height="76" filterUnits="userSpaceOnUse" color-interpolation-filters="sRGB">
<feFlood flood-opacity="0" result="BackgroundImageFix"/>
<feGaussianBlur in="BackgroundImageFix" stdDeviation="5"/>
<feComposite in2="SourceAlpha" operator="in" result="effect1_backgroundBlur_1_3735"/>
<feBlend mode="normal" in="SourceGraphic" in2="effect1_backgroundBlur_1_3735" result="shape"/>
<feColorMatrix in="SourceAlpha" type="matrix" values="0 0 0 0 0 0 0 0 0 0 0 0 0 0 0 0 0 0 127 0" result="hardAlpha"/>
<feOffset dy="1"/>
<feComposite in2="hardAlpha" operator="arithmetic" k2="-1" k3="1"/>
<feColorMatrix type="matrix" values="0 0 0 0 1 0 0 0 0 1 0 0 0 0 1 0 0 0 0.15 0"/>
<feBlend mode="normal" in2="shape" result="effect2_innerShadow_1_3735"/>
</filter>
<linearGradient id="paint0_linear_1_3735" x1="0" y1="0" x2="31.5618" y2="67.455" gradientUnits="userSpaceOnUse">
<stop stop-color="white" stop-opacity="0.1"/>
<stop offset="1" stop-color="white" stop-opacity="0.04"/>
</linearGradient>
</defs>
</svg>

